<svg width="440" height="440" viewBox="0 0 440 440" fill="none" xmlns="http://www.w3.org/2000/svg">
<circle cx="220" cy="220" r="220" fill="#004DB3"/>
<path d="M128.062 244L152.15 220.5L128.062 196.412L104.562 220.5L128.062 244ZM296.381 241.062L321.937 199.937L347.787 241.062H296.381ZM225 220.5C215.208 220.5 206.885 217.073 200.031 210.219C193.177 203.365 189.75 195.042 189.75 185.25C189.75 175.263 193.177 166.891 200.031 160.134C206.885 153.378 215.208 150 225 150C234.987 150 243.359 153.378 250.116 160.134C256.872 166.891 260.25 175.263 260.25 185.25C260.25 195.042 256.872 203.365 250.116 210.219C243.359 217.073 234.987 220.5 225 220.5ZM225.103 167.625C220.139 167.625 215.943 169.304 212.516 172.663C209.089 176.021 207.375 180.182 207.375 185.147C207.375 190.111 209.074 194.307 212.472 197.734C215.87 201.161 220.08 202.875 225.103 202.875C230.126 202.875 234.302 201.176 237.631 197.778C240.96 194.38 242.625 190.17 242.625 185.147C242.625 180.124 240.946 175.948 237.587 172.619C234.229 169.29 230.068 167.625 225.103 167.625ZM84 291V275.431C84 267.703 88.1125 261.511 96.3375 256.857C104.562 252.202 115.176 249.875 128.179 249.875C130.56 249.875 132.85 249.924 135.047 250.022C137.245 250.12 139.421 250.338 141.575 250.676C140.008 254.059 138.833 257.47 138.05 260.911C137.267 264.352 136.875 268.017 136.875 271.906V291H84ZM154.5 291V271.906C154.5 259.177 161.011 248.896 174.034 241.062C187.057 233.229 204.046 229.312 225 229.312C246.15 229.312 263.187 233.229 276.112 241.062C289.037 248.896 295.5 259.177 295.5 271.906V291H154.5ZM321.937 249.875C335.156 249.875 345.805 252.202 353.883 256.857C361.961 261.511 366 267.703 366 275.431V291H313.125V271.906C313.125 268.017 312.782 264.352 312.097 260.911C311.411 257.47 310.285 254.059 308.719 250.676C310.873 250.338 313.044 250.12 315.231 250.022C317.419 249.924 319.655 249.875 321.937 249.875ZM224.941 246.937C209.314 246.937 196.604 249.287 186.812 253.987C177.021 258.687 172.125 264.66 172.125 271.906V273.375H277.875V271.612C277.875 264.562 273.028 258.687 263.334 253.987C253.641 249.287 240.843 246.937 224.941 246.937Z" fill="#FEFEFE"/>
</svg>
